<?xml version="1.0" encoding="UTF-8"?>
<!DOCTYPE svg PUBLIC "-//W3C//DTD SVG 1.1//EN" "http://www.w3.org/Graphics/SVG/1.1/DTD/svg11.dtd">
<!-- Creator: CorelDRAW 2021.5 -->
<?xml-stylesheet href="button-two.css" type="text/css"?>
<svg xmlns="http://www.w3.org/2000/svg" xml:space="preserve" width="6.4915mm" height="5.4075mm" version="1.1" style="shape-rendering:geometricPrecision; text-rendering:geometricPrecision; image-rendering:optimizeQuality; fill-rule:evenodd; clip-rule:evenodd"
viewBox="0 0 1515.5 1262.5"
 xmlns:xlink="http://www.w3.org/1999/xlink"
 xmlns:xodm="http://www.corel.com/coreldraw/odm/2003">
 <g id="Слой_x0020_1">
  <metadata id="CorelCorpID_0Corel-Layer"/>
  <g>
   <path class="fil0" d="M897.8 1125.4c273,0 494.2,-221.1 494.2,-494.2 0,-273 -221.1,-494.2 -494.2,-494.2 -273,0 -494.2,221.1 -494.2,494.2 0,273 221.1,494.2 494.2,494.2l0 0zm0 -1111.9c339.7,0 617.7,278 617.7,617.7 0,339.7 -278,617.7 -617.7,617.7 -341.6,0 -617.7,-278 -617.7,-617.7 0,-339.7 278,-617.7 617.7,-617.7l0 0zm203.8 358.2l-185.3 321.2 -80.3 0 0 -370.6 92.7 0 0 163.7 92.7 -160.6 80.3 46.3z"/>
  </g>
  <path class="fil0" d="M631.2 0c61.1,0 120.2,8.7 176.1,24.9 -69,20 -133.1,51.3 -190.1,92 -136.6,3.6 -259.9,60.4 -349.8,150.3l-0.2 0.2c-93,92.9 -150.5,221.6 -150.5,363.8 0,142.1 57.6,270.7 150.7,363.8 90,90 213.3,146.8 349.8,150.5 57,40.6 121.1,72 190,92 -55.9,16.2 -115,24.9 -176.1,24.9 -174.3,0 -332.2,-70.7 -446.4,-184.9 -114.2,-114.2 -184.9,-272.1 -184.9,-446.4 0,-174 70.6,-331.8 184.9,-446.1l0.2 -0.2c114.3,-114.2 272.1,-184.9 446.1,-184.9z"/>
 </g>
</svg>
