<?xml version="1.0" encoding="UTF-8"?>
<!DOCTYPE svg PUBLIC "-//W3C//DTD SVG 1.1//EN" "http://www.w3.org/Graphics/SVG/1.1/DTD/svg11.dtd">
<!-- Creator: CorelDRAW 2021.5 -->
<svg xmlns="http://www.w3.org/2000/svg" xml:space="preserve" width="5.5mm" height="4.4091mm" version="1.1" style="shape-rendering:geometricPrecision; text-rendering:geometricPrecision; image-rendering:optimizeQuality; fill-rule:evenodd; clip-rule:evenodd"
viewBox="0 0 2329.9 1867.8"
 xmlns:xlink="http://www.w3.org/1999/xlink"
 xmlns:xodm="http://www.corel.com/coreldraw/odm/2003">
 <defs>
  <style type="text/css">
   <![CDATA[
    .str0 {stroke:black;stroke-width:84.7;stroke-miterlimit:22.9256}
    .fil1 {fill:black}
    .fil0 {fill:black;fill-rule:nonzero}
   ]]>
  </style>
 </defs>
 <g id="Слой_x0020_1">
  <metadata id="CorelCorpID_0Corel-Layer"/>
  <polygon id="arrow-up-thin.svg" class="fil0" points="94.9,864.7 543.3,864.7 543.3,1864.5 768.6,1867.8 768.6,864.7 1215.8,864.7 655.3,304.2 "/>
  <polygon id="arrow-up-thin.svg_0" class="fil0" points="603.3,864.7 1051.6,864.7 1051.6,1864.5 1276.9,1867.8 1276.9,864.7 1724.2,864.7 1163.7,304.2 "/>
  <polygon id="arrow-up-thin.svg_1" class="fil0" points="608.9,850.4 1057.2,850.4 1057.2,1850.2 1282.5,1853.5 1282.5,850.4 1729.7,850.4 1169.3,290 "/>
  <polygon id="arrow-up-thin.svg_2" class="fil0" points="1117.2,850.4 1565.6,850.4 1565.6,1850.2 1790.9,1853.5 1790.9,850.4 2238.1,850.4 1677.6,290 "/>
  <polygon id="arrow-up-thin.svg_3" class="fil0" points="608.9,850.4 1057.2,850.4 1057.2,1850.2 1282.5,1853.5 1282.5,850.4 1729.7,850.4 1169.3,290 "/>
  <rect class="fil1 str0" x="42.3" y="42.4" width="2245.2" height="152.5"/>
 </g>
</svg>
